# xmcd
#
# Track frame offsets:
#	150
#	18444
#	34246
#	50482
#	67846
#	79577
#	97004
#	109266
#	124067
#	143537
#	164226
#	178038
#	190144
#	202662
#	216624
#	230851
#
# Disc length: 3272 seconds
#
# Revision: 1
# Processed by: cddbd v1.5.1PL2 Copyright (c) Steve Scherf et al.
# Submitted via: audiograbber 1.83.01
#
DISCID=e70cc610
DTITLE=The Soul Band - Certified
DYEAR=2006
DGENRE=Soul
TTITLE0=Walk A Mile In My Shoes
TTITLE1=Your Love Is Amazing
TTITLE2=You've Got To Earn It
TTITLE3=This Love Of Mine
TTITLE4=Ain't That A Lot of Love
TTITLE5=A Nickel And A Nail
TTITLE6=The Stealer
TTITLE7=Never Like This Before
TTITLE8=Dolly Dagger
TTITLE9=Sometimes You Can't Make It On Your Own
TTITLE10=Slip Away
TTITLE11=Things get Better
TTITLE12=I Got The Will
TTITLE13=Be Good To Yourself
TTITLE14=He Don't Love You
TTITLE15=Let Me Down Easy
EXTD=www.thesoulband.net
EXTT0=
EXTT1=
EXTT2=
EXTT3=
EXTT4=
EXTT5=
EXTT6=
EXTT7=
EXTT8=
EXTT9=
EXTT10=
EXTT11=
EXTT12=
EXTT13=
EXTT14=
EXTT15=
PLAYORDER=
